# xmcd
#
# Track frame offsets:
#	150
#	17907
#	31560
#	49440
#	62648
#	84774
#	103837
#	127635
#	146869
#	161237
#	185941
#	201037
#	222683
#	235304
#
# Disc length: 3405 seconds
#
# Revision: 1
# Processed by: cddbd v1.5.2PL0 Copyright (c) Steve Scherf et al.
# Submitted via: audiograbber 1.83.01
#
DISCID=cc0d4b0e
DTITLE=Blind Boys of Alabama - Blind Boys of Alabama - Duets (2010)
DYEAR=2010
DGENRE=Blues
TTITLE0=Blind Boys of Alabama and Ben Harper - Take my hand
TTITLE1=Blind Boys of Alabama and Susan Tedeschi - Magnificent Sanctuary Band
TTITLE2=Blind Boys of Alabama and Toots Hibbert - Perfect Peace
TTITLE3=Blind Boys of Alabama and Randy Travis - Up above my head (I hear music i
TTITLE3=n the air)
TTITLE4=Blind Boys of Alabama and Timothy B. Sschmitt - Secular Praise
TTITLE5=Blind Boys of Alabama and Charlie Musselwhite - I had trouble
TTITLE6=Blind Boys of Alabama and Bonnie Raitt - When the spell is broken
TTITLE7=Blind Boys of Alabama and Jars Of Clay - Nothing but the blood
TTITLE8=Blind Boys of Alabama and Dan Zanes - Welcome table
TTITLE9=Blind Boys of Alabama and Solomon Burke - None of us are free
TTITLE10=Blind Boys of Alabama and Lou Reed - Jesus
TTITLE11=Blind Boys of Alabama and Marva Wright - How I got over (live)
TTITLE12=Blind Boys of Alabama and Asleep at the Wheel - The Devil ain't Lazy
TTITLE13=Blind Boys of Alabama and John Hammond - One Kind favor
EXTD=
EXTT0=
EXTT1=
EXTT2=
EXTT3=
EXTT4=
EXTT5=
EXTT6=
EXTT7=
EXTT8=
EXTT9=
EXTT10=
EXTT11=
EXTT12=
EXTT13=
PLAYORDER=
